<svg id="Layer_1" data-name="Layer 1" xmlns="http://www.w3.org/2000/svg" viewBox="0 0 100 100"><title>avatar</title><path d="M45.28,1.17A52.28,52.28,0,0,0,24.7,8,51.75,51.75,0,0,0,8,24.69,49.85,49.85,0,0,0,1,51.91,48.64,48.64,0,0,0,14.71,84,47,47,0,0,0,28.48,94,46,46,0,0,0,50,99a45.91,45.91,0,0,0,21.56-5,47.56,47.56,0,0,0,13.7-10A48.89,48.89,0,0,0,98.6,56.88a59.22,59.22,0,0,0,0-13.7A48.23,48.23,0,0,0,94,28.47,48.67,48.67,0,0,0,51.14,1.06C49,1,46.39,1.06,45.28,1.17Zm9.4,15.5A19,19,0,0,1,68.49,31.21a22.05,22.05,0,0,1-.33,8.87A18.84,18.84,0,0,1,32.57,42a19.35,19.35,0,0,1,0-14.24A18.93,18.93,0,0,1,54.68,16.67ZM69.49,61.83a27.5,27.5,0,0,1,11.67,4.93c2,1.55,4.24,4,4.24,4.6a8.35,8.35,0,0,1-1.3,2.34A41.5,41.5,0,0,1,16,73.7a8.49,8.49,0,0,1-1.31-2.34c0-.66,2.46-3.29,4.38-4.71a27.67,27.67,0,0,1,13.88-5.11c.95-.11,9.11-.17,18.11-.15C65.66,61.43,67.61,61.48,69.49,61.83Z"/></svg>